<svg xmlns="http://www.w3.org/2000/svg" viewBox="0 0 64 64" role="img" aria-label="ia · chip con destello">
  <rect width="64" height="64" rx="8" fill="#FAF6F0"></rect>
  <rect x="18" y="18" width="28" height="28" rx="3" fill="#2D1B3D"></rect>
  <rect x="26" y="26" width="12" height="12" rx="1" fill="#FAF6F0"></rect>
  <path d="M 32 28 L 33 31 L 36 32 L 33 33 L 32 36 L 31 33 L 28 32 L 31 31 Z" fill="#A855B5"></path>
  <rect x="26" y="12" width="3" height="6" fill="#2D1B3D"></rect>
  <rect x="35" y="12" width="3" height="6" fill="#2D1B3D"></rect>
  <rect x="26" y="46" width="3" height="6" fill="#2D1B3D"></rect>
  <rect x="35" y="46" width="3" height="6" fill="#2D1B3D"></rect>
  <rect x="12" y="26" width="6" height="3" fill="#2D1B3D"></rect>
  <rect x="12" y="35" width="6" height="3" fill="#2D1B3D"></rect>
  <rect x="46" y="26" width="6" height="3" fill="#2D1B3D"></rect>
  <rect x="46" y="35" width="6" height="3" fill="#2D1B3D"></rect>
</svg>